<?xml version="1.0" ?><svg viewBox="0 0 64 64" xmlns="http://www.w3.org/2000/svg"><defs><style>.cls-1{fill:#64a5f8;}.cls-2{fill:#83b7f9;}.cls-3{fill:#c1c8d1;}.cls-4{fill:#fff;}.cls-5{fill:#58616c;}.cls-6{fill:#758190;}</style></defs><title/><g data-name="Layer 30" id="Layer_30"><rect class="cls-1" height="48" width="34" x="22" y="2"/><path class="cls-2" d="M22,42.577A19.443,19.443,0,0,0,26,43c13.255,0,24-13.431,24-30A36.566,36.566,0,0,0,48.328,2H22Z"/><path class="cls-3" d="M42,32H32V22.936h0A9,9,0,1,0,44.354,34.354Z"/><circle class="cls-4" cx="34" cy="15" r="3"/><rect class="cls-5" height="6" width="6" x="16" y="6"/><rect class="cls-5" height="6" width="6" x="16" y="40"/><rect class="cls-6" height="51" width="6" x="10" y="2"/><rect class="cls-6" height="9" width="10" x="8" y="53"/><polygon class="cls-4" points="44 28 36 28 36 25 43 25 43 23 36 23 36 20 32 20 32 32 42 32 48 38 51 35 44 28"/></g></svg>